<?xml version="1.0" encoding="utf-8"?>
<!-- Generator: Adobe Illustrator 18.1.1, SVG Export Plug-In . SVG Version: 6.00 Build 0)  -->
<svg version="1.1" id="Layer_1" xmlns="http://www.w3.org/2000/svg" xmlns:xlink="http://www.w3.org/1999/xlink" x="0px" y="0px"
	 viewBox="0 0 841.9 595.3" enable-background="new 0 0 841.9 595.3" xml:space="preserve">
<defs>
<style type="text/css"><![CDATA[
	@keyframes eyebar-keyframes {
      0% { fill: #000; }
       40% { fill: #fff; }
       40% { fill: #fff; }
       90% { fill: #000; }
     }
	#eyebar {
  		-webkit-animation: eyebar-keyframes 0.6s ease infinite;
  		animation: eyebar-keyframes 0.6s ease infinite;
  	}
]]></style>
</defs>
<g>
	<path fill="#666666" d="M713.6,233.3L583.8,69c-7.1-8.3-21.4-8.3-27.4,1.2l-53.6,77.4c-17.9-9.5-36.9-15.5-58.3-15.5c-22.6,0-44.1,6-63.1,15.5
		l-53.6-75c-6-9.5-20.2-10.7-27.4-1.2L170.7,235.7c-6,6,3.6,15.5,10.7,9.5l111.9-98.8c3.6-3.6,8.3-2.4,10.7,1.2l13.1,42.9
		C254,205.9,206.4,263,207.6,330.9c0,76.2,58.3,138.1,134.5,144.1c2.4,27.4,17.9,58.3,67.9,75c3.6,1.2,7.1-3.6,4.8-6
		c-4.8-6-10.7-15.5-11.9-26.2c11.9,3.6,25,6,38.1,6c11.9,0,23.8-2.4,34.5-6c-2.4,9.5-7.1,17.9-11.9,25c-2.4,3.6,1.2,8.3,4.8,6
		c51.2-17.9,67.9-48.8,71.4-75c77.4-2.4,140.5-66.7,140.5-145.2c0-67.9-48.8-126.2-113.1-140.5l14.3-44.1c3.6-3.6,8.3-3.6,10.7-1.2
		l111.9,98.8C710,247.6,718.3,239.2,713.6,233.3z"/>
	
		<ellipse transform="matrix(-0.8521 0.5233 -0.5233 -0.8521 777.8535 473.3831)" fill="#FFFFFF" cx="322" cy="346.6" rx="76.2" ry="103.6"/>
	<g>
		<path fill="#666666" d="M292.1,392.8c0,0-1.2-4.8-1.2-13.1c0-8.3,1.2-13.1,1.2-13.1l39.3-16.7l-39.3-16.7c0,0-1.2-4.8-1.2-13.1
			c0-8.3,1.2-13.1,1.2-13.1l66.7,28.6c0,0,1.2,4.8,1.2,13.1c0,8.3-1.2,13.1-1.2,13.1L292.1,392.8z"/>
	</g>
	
		<ellipse transform="matrix(0.8521 0.5233 -0.5233 0.8521 264.1942 -242.9595)" fill="#FFFFFF" cx="562" cy="346" rx="77.4" ry="104.8"/>
</g>
<path id="eyebar" fill="#000000" d="M514.8,363c0,0-1.2-3.6-1.2-11.9s1.2-11.9,1.2-11.9h89.3c0,0,1.2,3.6,1.2,11.9s-1.2,11.9-1.2,11.9H514.8z" />
</svg>
