<?xml version="1.0" encoding="utf-8"?>
<!-- Generator: Adobe Illustrator 18.1.1, SVG Export Plug-In . SVG Version: 6.00 Build 0)  -->
<svg version="1.1" id="Ebene_1" xmlns="http://www.w3.org/2000/svg" xmlns:xlink="http://www.w3.org/1999/xlink" x="0px" y="0px"
	 viewBox="0 0 32 32" enable-background="new 0 0 32 32" xml:space="preserve">
<g>
	<linearGradient id="SVGID_1_" gradientUnits="userSpaceOnUse" x1="16" y1="28.8116" x2="16" y2="2">
		<stop  offset="0" style="stop-color:#E14760"/>
		<stop  offset="1" style="stop-color:#FA8816"/>
	</linearGradient>
	<path fill="url(#SVGID_1_)" d="M30.9,11.4l-7.1-9c-0.4-0.5-1.2-0.5-1.5,0.1l-3,4.3c-1-0.5-2.1-0.8-3.2-0.8c-1.3,0-2.4,0.3-3.4,0.9
		L9.7,2.5C9.3,2,8.6,2,8.2,2.5l-7.1,9c-0.3,0.4,0.2,0.8,0.5,0.5l6.1-5.4c0.2-0.2,0.5-0.1,0.6,0L9.1,9c-3.5,0.9-6.1,4-6,7.7
		c0,4.2,3.3,7.6,7.4,7.9c0.1,1.5,1,3.2,3.8,4.2c0.2,0.1,0.4-0.2,0.3-0.4c-0.3-0.4-0.6-0.9-0.7-1.4c0.7,0.2,1.4,0.4,2.1,0.4
		c0.7,0,1.3-0.1,1.9-0.3c-0.1,0.5-0.4,1-0.6,1.4c-0.1,0.2,0,0.5,0.3,0.4c2.8-1,3.8-2.6,3.9-4.2c4.3-0.1,7.7-3.6,7.7-8
		c0-3.8-2.7-6.9-6.2-7.7l0.8-2.4c0.2-0.2,0.4-0.2,0.6,0l6.1,5.4C30.7,12.2,31.2,11.8,30.9,11.4z"/>
	
		<ellipse transform="matrix(-0.8521 0.5233 -0.5233 -0.8521 26.8355 27.7139)" fill="#FFFFFF" cx="9.5" cy="17.6" rx="4.2" ry="5.7"/>
	<g>
		<path fill="#E54D42" d="M7.8,20.2c0,0-0.1-0.3-0.1-0.7c0-0.5,0.1-0.7,0.1-0.7l2.1-0.9l-2.1-0.9c0,0-0.1-0.3-0.1-0.7
			c0-0.5,0.1-0.7,0.1-0.7l3.7,1.6c0,0,0.1,0.3,0.1,0.7c0,0.5-0.1,0.8-0.1,0.8L7.8,20.2z"/>
	</g>
	<ellipse transform="matrix(0.8521 0.5233 -0.5233 0.8521 12.583 -9.2355)" fill="#FFFFFF" cx="22.6" cy="17.6" rx="4.2" ry="5.7"/>
	<g>
		<path fill="#E54D42" d="M20,18.6c0,0-0.1-0.2-0.1-0.7c0-0.5,0.1-0.7,0.1-0.7h4.9c0,0,0.1,0.2,0.1,0.7c0,0.5-0.1,0.7-0.1,0.7H20z"
			/>
	</g>
</g>
</svg>
