<?xml version="1.0" encoding="utf-8"?>
<svg version="1.1" id="Ebene_1" xmlns="http://www.w3.org/2000/svg" xmlns:xlink="http://www.w3.org/1999/xlink" x="0px" y="0px"
viewBox="0 0 120 120" style="enable-background:new 0 0 120 120;" xml:space="preserve">
<style type="text/css">
.st0{fill:url(#SVGID_1_);}
.st1{fill:url(#SVGID_2_);}
.st2{fill:#AFAFAF;}
.st3{fill:#969696;}
.st4{opacity:0.1;}
.st5{fill:#E2E2E2;}
.st6{fill:#6D6D6D;}
.st7{fill:#C1C1C1;}
.st8{fill:#D6D6D6;}
.st9{fill:#C9C9C9;}
.st10{fill:#EAB896;}
.st11{fill:#74A0A5;}
.st12{fill:#D19A75;}
.st13{fill:#5F8C8E;}
.st14{fill:#DA8489;}
.st15{fill:#BC6972;}
</style>
<linearGradient id="SVGID_1_" gradientUnits="userSpaceOnUse" x1="152.9989" y1="-32.5278" x2="152.9989" y2="-75.2155" gradientTransform="matrix(0.4057 0.4057 -0.4121 0.4121 -55.0115 48.3012)">
<stop  offset="0" style="stop-color:#FFFFFF;stop-opacity:0"/>
<stop  offset="1" style="stop-color:#EAB896"/>
</linearGradient>
<polygon class="st0" points="23,99.5 17.9,94.4 35.5,76.8 40.6,82 "/>
<linearGradient id="SVGID_2_" gradientUnits="userSpaceOnUse" x1="831.9162" y1="-32.5278" x2="831.9162" y2="-75.2155" gradientTransform="matrix(0.1667 0.1667 -0.4121 0.4121 -127.0081 -23.6954)">
<stop  offset="0" style="stop-color:#FFFFFF;stop-opacity:0"/>
<stop  offset="1" style="stop-color:#EAB896"/>
</linearGradient>
<polygon class="st1" points="26.1,102.6 24,100.5 41.6,82.9 43.7,85 "/>
<g>
<path class="st2" d="M46.9,86.1l3.7-6.5l-1-0.6l-8.4-8.4l0,0l-0.7-1l-6.1,4.2c-0.5,0.4-0.8,0.9-0.9,1.5c-0.1,0.6,0.2,1.2,0.6,1.7
l9.6,9.6c0.5,0.5,1.1,0.7,1.8,0.6C46,87,46.5,86.6,46.9,86.1z"/>
</g>
<g>
<polygon class="st3" points="37,71.8 48.5,83.3 49.7,81.1 39,70.5 	"/>
</g>
<g class="st4">
<path d="M46.9,86.1l3.7-6.5l-1-0.6L49,78.4l-6.8,6.7l1.3,1.3c0.5,0.5,1.1,0.7,1.8,0.6C46,87,46.5,86.6,46.9,86.1z"/>
</g>
<g>
<path class="st5" d="M69.7,76.7c0.8-9,5.8-16.4,7.8-19l7.8-8.3c6.7-6.7,8.9-15.4,4.9-19.5c-4.2-4.2-12.4-2.1-19.4,4.9l-7.7,7.3
c-0.3,0.2-8.6,7.3-19.6,8.3c-12.6,1.1-16.1,6.7-16.3,6.9l-0.5,0.8l16.8,16.8l1-1l2,2l-1,1L62,93.5l0.8-0.5
C63.1,92.8,68.6,89.3,69.7,76.7z"/>
</g>
<g>
<path class="st6" d="M80.4,39.8c-1.6-1.6-3.4-3.9-2.2-5c2-2,5.2-2,7.2,0c2,2,2,5.2,0,7.2C84.2,43.2,82,41.5,80.4,39.8z"/>
</g>
<g>
<polygon class="st7" points="55.5,68.7 48.2,79.6 46.2,77.6 54.8,68 	"/>
</g>
<g>
<polygon class="st7" points="51.5,64.7 40.6,72 42.6,74.1 52.3,65.5 	"/>
</g>
<g>
<path class="st8" d="M48.9,80.3l3.8,3.8L86,48.8l1.8-2.1c4.1-5.4,5.6-11.4,3.6-15.1c0.1,1.7-0.3,7-7.9,14.6
c-9.3,9.3-30.4,30-30.4,30L48.9,80.3z"/>
</g>
<g>
<path class="st9" d="M35.4,66.8l1.7,1.7l26.3-26.3l2.8-2.8l-3.1,2.8c-0.2,0.1-3.3,2.9-8.4,5.2L35.4,66.8z"/>
</g>
<g>
<path class="st9" d="M53.6,85l-1.7-1.7l26.1-26.5c0,0-3.1,4.1-5.4,9.1L53.6,85z"/>
</g>
<g>
<polygon class="st10" points="66.2,68.7 66.2,39.4 70.6,35 70.6,64.3 	"/>
</g>
<g>
<polygon class="st11" points="61.9,73.1 61.8,43.8 66.2,39.4 66.2,68.7 	"/>
</g>
<g>
<path class="st12" d="M66.2,68.7l4.4-4.4l0-5.4c-1.5,1.5-3,2.9-4.4,4.3L66.2,68.7z"/>
</g>
<g>
<path class="st13" d="M61.9,73.1l4.4-4.4l0-5.5c-1.5,1.5-3,3-4.4,4.3L61.9,73.1z"/>
</g>
<g>
<path class="st14" d="M64.9,91L54.6,80.7l-2.7,2.7L62,93.5l0.8-0.5C62.9,92.9,63.7,92.4,64.9,91z"/>
</g>
<g>
<polygon class="st15" points="54.6,80.6 51.9,83.4 53.6,85 56.3,82.3 	"/>
</g>
<g>
<path class="st14" d="M39.8,65.8L29.2,55.3c-1.5,1.2-2,2-2,2.1l-0.5,0.8l10.4,10.4L39.8,65.8z"/>
</g>
<g>

<rect x="36.4" y="64.4" transform="matrix(-0.7071 -0.7071 0.7071 -0.7071 17.2911 139.8177)" class="st15" width="2.4" height="3.8"/>
</g>
<g>
<path class="st6" d="M42.5,78.9l-1.3-1.3c-0.7-0.7-0.7-2,0-2.7l11.5-11.5c0.7-0.7,2-0.7,2.7,0l1.3,1.3c0.7,0.7,0.7,2,0,2.7
L45.2,78.9C44.5,79.6,43.3,79.6,42.5,78.9z"/>
</g>
</svg>
